<svg width="512" height="512" version="1.1" viewBox="0 0 1600 1600" xmlns="http://www.w3.org/2000/svg" xmlns:xlink="http://www.w3.org/1999/xlink">
 <defs>
  <linearGradient id="linearGradient3" x1="797.92" x2="797.92" y1="8.6001" y2="1591.6" gradientUnits="userSpaceOnUse">
   <stop stop-color="#00bc7c" offset="0"/>
   <stop stop-color="#007a55" offset="1"/>
  </linearGradient>
 </defs>
 <g transform="translate(1.9321 -.11162)" fill="url(#linearGradient3)">
  <path id="Selection" d="m261.45 1.6807-128.14 2.0706c-27.117 8.2042-66.481 26.035-85.84 46.736-8.5889 9.208-13.343 19.728-18.918 30.805-26.321 52.514-19.912 60.936-19.912 117.71v1267c0.03463 30.463 3.1899 39.982 20.229 65.772 10.563 15.993 14.582 20.956 28.262 34.63 8.0348 7.9619 14.34 14.283 24.245 20.03 42.425 24.543 67.385-0.8622 96.961-30.425l41.559-41.54c18.078-18.07 48.254-59.679 76.202-48.152 25.663 10.593 81.66 70.964 103.89 93.154 13.749 13.743 31.766 33.375 51.956 36.593 22.234 3.5655 42.002-19.08 55.994-33.446l75.61-74.838c9.801-8.5157 25.103-21.498 38.092-23.748 21.368-3.6694 38.151 16.396 51.935 29.516l34.646 31.333 51.935 50.855c10.009 8.5504 27.67 23.464 41.559 21.699 14.061-1.8347 35.117-17.999 45.022-27.657l69.587-72.491c10.979-11.25 35.259-33.298 51.641-33.298 13.749 0 31.717 14.264 41.241 23.368l24.689 27.108 55.277 52.482c13.264 11.839 32.286 31.431 51.956 28.904 13.957-1.8347 31.272-17.074 41.559-26.178 33.351-29.424 35.391-32.51 64.344-65.602 12.364-14.124 37.708-37.888 56.86-40.692 21.299-3.1155 40.981 17.17 55.423 30.636l38.408 41.18 30.27 27.974c13.957 13.985 34.73 34.49 55.994 35.389 13.056 0.5193 34.903-12.126 44.877-20.157 6.9266-5.5387 31.137-32.327 36.887-39.702 16.935-21.739 22.097-38.909 22.132-65.772v-1322.4c-0.035-26.309-1.0336-35.164-13.571-58.842-7.7231-14.539-16.619-33.036-28.325-44.392-26.39-25.582-77.418-45.549-113.96-45.618h-928.15zm1069.7 302.09c31.852-0.51534 53.978 20.372 52.063 54.449l-16.318 96.937-8.3073 76.146-11.88 55.397c-4.5023 22.605-6.3305 69.261-22.85 85.739-13.714 13.743-45.344 15.194-61.553 5.1555-8.762-5.4002-23.331-20.798-31.158-28.587-9.0045-8.9657-23.808-27.375-38.113-22.84-8.4157 2.6655-21.249 16.436-27.691 22.84l-51.956 51.932-192.97 191.85c-44.399 43.756-55.509 75.451-122.18 74.689-35.429-0.41538-43.26-11.246-69.269-33.193l-86.582-84.492c-10.771-10.766-44.95-51.832-60.327-46.293-9.8357 3.5309-50.82 46.594-60.898 56.668l-110.95 110.74-30.058 28.059c-27.983 29.563-57.556 71.778-101.4 72.366-9.1776 0.104-30.146 0.6349-38.113-1.7536-28.918-8.6542-44.655-39.356-45.002-67.465-0.10389-8.6888-0.56998-23.203 1.9236-31.164 8.485-27.14 51.502-62.002 71.762-83.395l188.07-187.56c23.135-23.02 65.895-72.858 94.952-82.654 11.567-3.8771 32.349-3.1099 45.022-2.9368 34.148 0.48462 46.446 18.83 69.269 41.54l41.559 38.2 41.874 42.385c10.217 9.6927 41.899 47.698 55.128 45.171 8.2426-1.5923 18.315-12.664 24.203-18.445l41.559-41.54 152.38-151.39c12.052-11.943 52.884-46.57 55.551-59.793 2.7706-13.881-15.506-29.177-24.372-38.075-22.442-22.57-35.426-28.903-34.561-62.307 0.208-9.2426 0.7449-16.14 5.9399-24.171 13.645-21.151 46.802-21.941 70.18-29.453l90.048-19.48 51.935-13.818 86.582-19.079c2.2057-0.22717 4.3869-0.34581 6.5106-0.38028z" fill="url(#linearGradient3)" stroke="#fff" stroke-width="3.1162"/>
 </g>
</svg>
