<svg width="1024" height="168.33" version="1.1" viewBox="0 0 3200 526.04" xmlns="http://www.w3.org/2000/svg" xmlns:xlink="http://www.w3.org/1999/xlink">
 <defs>
  <linearGradient id="linearGradient2" x1="1707.8" x2="1707.8" y1="-1053.7" y2="1753" gradientUnits="userSpaceOnUse">
   <stop stop-color="#00bc7c" offset=".41239"/>
   <stop stop-color="#007a55" offset=".61316"/>
  </linearGradient>
 </defs>
 <g transform="matrix(1.1403 0 0 1.1403 -347.54 -135.7)" fill="url(#linearGradient2)">
  <path transform="scale(.94805 1.0548)" d="m1031.6 229.61v156.64h26.953q14.453 0 20.508 5.6641 6.25 5.4688 6.25 14.453 0 8.7891-6.25 14.453-6.0547 5.4688-20.508 5.4688h-93.75q-14.453 0-20.703-5.4688-6.0547-5.6641-6.0547-14.648 0-8.7891 6.0547-14.258 6.25-5.6641 20.703-5.6641h26.758v-156.64h-43.359v37.891q0 14.453-5.6641 20.703-5.4688 6.0547-14.453 6.0547-8.7891 0-14.453-6.0547-5.4688-6.25-5.4688-20.703v-78.125l207.42 0.19532v77.93q0 14.453-5.6641 20.703-5.4687 6.0547-14.453 6.0547-8.789 0-14.453-6.0547-5.4688-6.25-5.4688-20.703v-37.891zm212.3 19.336v25q25.195-18.164 39.648-24.219 14.648-6.0547 27.344-6.0547 19.531 0 37.891 14.453 12.5 9.7656 12.5 19.922 0 8.5938-6.0547 14.648-5.8593 5.8594-14.258 5.8594-7.4218 0-15.625-7.4219-8.2031-7.4219-14.648-7.4219-8.3984 0-25.195 10.547-16.602 10.547-41.602 31.641v60.352h57.031q14.453 0 20.508 5.6641 6.25 5.4688 6.25 14.453 0 8.7891-6.25 14.453-6.0547 5.4688-20.508 5.4688h-120.9q-14.453 0-20.703-5.4688-6.0547-5.6641-6.0547-14.648 0-8.7891 6.0547-14.258 6.25-5.6641 20.703-5.6641h23.828v-97.266h-14.453q-14.453 0-20.703-5.4688-6.0547-5.6641-6.0547-14.648 0-8.7891 6.0547-14.258 6.25-5.6641 20.703-5.6641zm352.34 91.992q0 23.047-12.891 44.727-12.695 21.484-38.086 34.375-25.195 12.695-52.734 12.695-27.344 0-52.344-12.5-25-12.695-38.086-34.375-13.086-21.68-13.086-45.312 0-24.023 13.281-47.07 13.281-23.242 38.086-36.523 25-13.281 52.148-13.281 27.344 0 52.539 13.672 25.391 13.477 38.281 36.523 12.891 22.852 12.891 47.07zm-40.039 0.19532q0-19.336-13.867-35.547-18.945-21.875-49.805-21.875-27.148 0-45.312 17.383-18.164 17.383-18.164 40.234 0 18.75 18.359 35.156 18.359 16.211 45.117 16.211 26.953 0 45.312-16.211 18.359-16.406 18.359-35.352zm219.34-45.312q-9.7656-6.0547-20.508-8.9844-10.742-3.125-22.461-3.125-23.242 0-36.914 7.6172-6.0547 3.3203-6.0547 7.2266 0 4.4922 8.2032 8.7891 6.25 3.125 27.93 6.0547 39.844 5.4688 55.469 10.938 20.508 7.2266 31.641 21.484 11.133 14.258 11.133 30.078 0 21.484-18.945 35.938-27.148 20.898-70.508 20.898-17.383 0-32.226-3.125-14.648-2.9297-26.953-8.7891-2.9297 2.5391-6.25 3.9062-3.3203 1.3672-6.8359 1.3672-9.375 0-15.039-6.0547-5.4687-6.25-5.4687-20.703v-13.477q0-14.453 5.4687-20.508 5.6641-6.25 14.648-6.25 7.2265 0 12.109 4.1016 4.8829 3.9062 7.6172 13.672 9.1797 7.8125 22.07 11.914 12.891 3.9062 29.688 3.9062 27.539 0 42.774-8.5938 7.2265-4.2969 7.2265-8.9844 0-7.8125-10.352-12.891-10.352-5.0781-42.774-8.5938-48.242-5.0781-64.453-19.531-16.211-14.258-16.211-35.156 0-21.484 18.164-35.742 24.609-19.531 64.453-19.531 13.867 0 26.562 2.7344 12.891 2.5391 24.609 8.0078 3.711-2.7344 6.836-4.1016 3.3203-1.3672 6.0547-1.3672 8.2031 0 13.672 6.25 5.4688 6.0547 5.4688 20.508v9.7656q0 13.086-3.125 17.773-6.25 8.9844-16.992 8.9844-7.2266 0-12.695-4.4922-5.4688-4.4922-7.0313-11.914zm-38.281-98.633 40.234-26.953q6.6406-4.4922 10.547-4.4922 5.4688 0 9.375 4.1016 3.9063 4.1016 3.9063 9.375 0 7.0312-8.7891 13.086l-55.273 36.719-54.688-36.719q-8.9844-6.0547-8.9844-12.891 0-5.4688 3.9063-9.5703 4.1015-4.1016 9.5703-4.1016 3.9062 0 10.547 4.4922zm202.15 162.5v66.602h-46.875q-14.453 0-20.703-5.4688-6.0547-5.6641-6.0547-14.648 0-8.7891 6.25-14.258 6.25-5.6641 20.508-5.6641h6.836v-173.24h-6.836q-14.453 0-20.703-5.4688-6.0547-5.6641-6.0547-14.648 0-8.7891 6.0547-14.258 6.25-5.6641 20.703-5.6641h46.875v134.96l31.25-25.195q-4.8828-8.3984-4.8828-13.672 0-8.9844 6.0547-14.453 6.0547-5.6641 20.508-5.6641h45.703q14.453 0 20.508 5.6641 6.25 5.4688 6.25 14.453 0 8.7891-6.25 14.453-6.0547 5.4688-20.508 5.4688h-11.133l-48.633 39.453 65.43 57.812h11.719q14.453 0 20.508 5.6641 6.25 5.4688 6.25 14.453 0 8.7891-6.25 14.453-6.0547 5.4688-20.508 5.4688h-46.094q-14.453 0-20.703-5.4688-6.0547-5.6641-6.0547-14.648 0-7.6172 6.6406-15.039l-42.383-37.5zm376.95-18.75q0 23.047-12.891 44.727-12.695 21.484-38.086 34.375-25.195 12.695-52.734 12.695-27.344 0-52.344-12.5-25-12.695-38.086-34.375-13.086-21.68-13.086-45.312 0-24.023 13.281-47.07 13.281-23.242 38.086-36.523 25-13.281 52.148-13.281 27.344 0 52.539 13.672 25.391 13.477 38.281 36.523 12.891 22.852 12.891 47.07zm-40.039 0.19532q0-19.336-13.867-35.547-18.945-21.875-49.805-21.875-27.148 0-45.312 17.383-18.164 17.383-18.164 40.234 0 18.75 18.359 35.156 18.359 16.211 45.117 16.211 26.953 0 45.312-16.211 18.359-16.406 18.359-35.352zm114.26-92.188v11.328q9.7656-9.5703 17.578-13.086 8.0078-3.7109 18.359-3.7109 8.7891 0 17.383 4.2969 8.5938 4.2969 16.797 12.891 10.352-8.5938 20.898-12.695 10.742-4.2969 21.875-4.2969 22.266 0 36.133 11.914 18.359 15.625 18.359 41.016v89.648q12.5 0 18.555 5.6641 6.0547 5.6641 6.0547 14.453t-6.0547 14.453q-6.0547 5.4688-20.508 5.4688h-38.086v-126.37q0-9.1797-3.3204-12.695-3.3203-3.5156-10.156-3.5156-6.6406 0-12.305 3.5156-7.2266 4.8828-17.578 18.359v80.664q12.5 0 18.555 5.6641 6.0547 5.6641 6.0547 14.453t-6.0547 14.453q-6.0547 5.4688-20.508 5.4688h-38.086v-126.37q0-8.9844-3.5156-12.5-3.3203-3.7109-10.156-3.7109-7.0312 0-13.867 4.4922-6.836 4.2969-16.406 17.383v80.664q12.5 0 18.555 5.6641 6.25 5.6641 6.25 14.453t-6.25 14.453q-6.0547 5.4688-20.508 5.4688h-36.133q-14.453 0-20.508-5.4688-6.25-5.6641-6.25-14.648 0-8.7891 6.0546-14.258 6.0547-5.6641 18.75-5.6641v-97.266q-12.695 0-18.75-5.6641-6.0546-5.6641-6.0546-14.453t6.25-14.258q6.0546-5.6641 20.508-5.6641zm342.19-75.977v42.383h-47.852v-42.383zm-16.406 116.02h-81.641q-14.453 0-20.703-5.4688-6.0547-5.6641-6.0547-14.648 0-8.7891 6.0547-14.258 6.25-5.6641 20.703-5.6641h121.68v185.74q0 21.094-8.9844 36.719-8.789 15.82-27.148 27.148-18.359 11.328-41.406 11.328h-45.312q-14.453 0-20.703-5.6641-6.0547-5.4688-6.0547-14.258 0-8.9844 6.0547-14.648 6.25-5.4688 20.703-5.4688h44.141q18.359 0 28.516-9.9609 10.156-9.9609 10.156-25.195zm316.6 68.945h-164.26q6.25 15.625 22.07 25.195 16.016 9.5703 43.164 9.5703 22.266 0 59.18-9.5703 15.234-3.9062 21.094-3.9062 8.0078 0 13.477 5.6641 5.4687 5.6641 5.4687 14.258 0 7.8125-5.8593 13.281-7.8125 7.2266-38.086 13.867-30.273 6.4453-58.203 6.4453-48.047 0-76.953-27.148-28.711-27.148-28.711-66.797 0-42.188 31.055-68.555 31.25-26.562 71.875-26.562 24.414 0 44.727 8.5938 20.508 8.5938 30.469 18.555 14.062 14.453 23.242 35.742 6.25 14.844 6.25 34.375zm-44.336-40.039q-9.1797-17.188-24.024-25.586-14.844-8.5938-35.352-8.5938-20.312 0-35.156 8.5938-14.844 8.3984-24.219 25.586zm175.59-68.945v25q25.195-18.164 39.648-24.219 14.648-6.0547 27.344-6.0547 19.531 0 37.891 14.453 12.5 9.7656 12.5 19.922 0 8.5938-6.0547 14.648-5.8593 5.8594-14.258 5.8594-7.4218 0-15.625-7.4219-8.2031-7.4219-14.648-7.4219-8.3984 0-25.195 10.547-16.602 10.547-41.602 31.641v60.352h57.031q14.453 0 20.508 5.6641 6.25 5.4688 6.25 14.453 0 8.7891-6.25 14.453-6.0547 5.4688-20.508 5.4688h-120.9q-14.453 0-20.703-5.4688-6.0547-5.6641-6.0547-14.648 0-8.7891 6.0547-14.258 6.25-5.6641 20.703-5.6641h23.828v-97.266h-14.453q-14.453 0-20.703-5.4688-6.0547-5.6641-6.0547-14.648 0-8.7891 6.0547-14.258 6.25-5.6641 20.703-5.6641z" stroke-width=".90001" aria-label="Troškomjer"/>
  <path id="Selection" d="m378 119-37 0.59814c-7.83 2.37-19.196 7.521-24.786 13.501-2.48 2.66-3.8526 5.6989-5.4626 8.8989-7.6 15.17-5.7495 17.603-5.7495 34.003v366c0.01 8.8 0.92107 11.55 5.8411 19 3.05 4.62 4.2104 6.0537 8.1604 10.004 2.32 2.3 4.1407 4.1261 7.0007 5.7861 12.25 7.09 19.457-0.24907 27.997-8.7891l12-12c5.22-5.22 13.933-17.24 22.003-13.91 7.41 3.06 23.579 20.5 29.999 26.91 3.97 3.97 9.1724 9.6413 15.002 10.571 6.42 1.03 12.128-5.5119 16.168-9.6619l21.832-21.619c2.83-2.46 7.2485-6.2104 10.999-6.8604 6.17-1.06 11.016 4.7366 14.996 8.5266l10.004 9.0515 14.996 14.691c2.89 2.47 7.9895 6.7783 12 6.2683 4.06-0.53 10.14-5.1995 13-7.9895l20.093-20.941c3.17-3.25 10.181-9.6192 14.911-9.6192 3.97 0 9.158 4.1205 11.908 6.7505l7.1289 7.8308 15.961 15.161c3.83 3.42 9.3225 9.0796 15.002 8.3496 4.03-0.53 9.0295-4.9323 12-7.5623 9.63-8.5 10.219-9.3914 18.579-18.951 3.57-4.08 10.888-10.945 16.418-11.755 6.15-0.9 11.833 4.9601 16.003 8.8501l11.09 11.896 8.7402 8.0811c4.03 4.04 10.028 9.9634 16.168 10.223 3.77 0.15 10.078-3.5028 12.958-5.8228 2-1.6 8.9906-9.3385 10.651-11.469 4.89-6.28 6.3804-11.24 6.3904-19v-382c-0.01-7.6-0.29846-10.158-3.9185-16.998-2.23-4.2-4.7987-9.5435-8.1787-12.824-7.62-7.39-22.354-13.158-32.904-13.178h-268zm308.88 87.268c9.1972-0.14887 15.586 5.885 15.033 15.729l-4.7119 28.003-2.3987 21.997-3.4302 16.003c-1.3 6.53-1.8279 20.008-6.5979 24.768-3.96 3.97-13.093 4.3893-17.773 1.4893-2.53-1.56-6.7366-6.0081-8.9966-8.2581-2.6-2.59-6.8746-7.9079-11.005-6.5979-2.43 0.77-6.1356 4.7479-7.9956 6.5979l-15.002 15.002-55.719 55.42c-12.82 12.64-16.028 21.796-35.278 21.576-10.23-0.12-12.491-3.2486-20.001-9.5886l-25-24.408c-3.11-3.11-12.979-14.973-17.419-13.373-2.84 1.02-14.674 13.46-17.584 16.37l-32.037 31.989-8.6792 8.1055c-8.08 8.54-16.619 20.735-29.279 20.905-2.65 0.03-8.7046 0.18341-11.005-0.50659-8.35-2.5-12.894-11.369-12.994-19.489-0.03-2.51-0.16458-6.7027 0.55542-9.0027 2.45-7.84 14.871-17.911 20.721-24.091l54.303-54.181c6.68-6.65 19.027-21.047 27.417-23.877 3.34-1.12 9.3405-0.89839 13-0.84839 9.86 0.14 13.411 5.4395 20.001 12l12 11.035 12.091 12.244c2.95 2.8 12.098 13.779 15.918 13.049 2.38-0.46 5.2885-3.6584 6.9885-5.3284l12-12 44-43.732c3.48-3.45 15.27-13.453 16.04-17.273 0.8-4.01-4.4774-8.4286-7.0374-10.999-6.48-6.52-10.229-8.3493-9.9793-17.999 0.06-2.67 0.21509-4.6624 1.7151-6.9824 3.94-6.11 13.514-6.3383 20.264-8.5083l26.001-5.6274 14.996-3.9917 25-5.5115c0.63688-0.0656 1.2667-0.0999 1.8799-0.10986z" fill="url(#linearGradient2)" stroke="#fff" stroke-width=".9"/>
 </g>
</svg>
