<svg width="3.4133in" height="3.4133in" version="1.1" viewBox="0 0 1024 1024" xmlns="http://www.w3.org/2000/svg">
 <g>
  <text transform="scale(.94806 1.0548)" x="-4.4505119" y="818.23608" fill="#ffffff" font-family="'Courier New'" font-size="181.22px" font-weight="bold" stroke="#ffffff" stroke-width="4.3492" style="font-variant-caps:normal;font-variant-east-asian:normal;font-variant-ligatures:normal;font-variant-numeric:normal" xml:space="preserve"><tspan x="-4.4505119" y="818.23608" font-family="'Courier New'" font-size="181.22px" font-weight="bold" stroke-width="4.3492" style="font-variant-caps:normal;font-variant-east-asian:normal;font-variant-ligatures:normal;font-variant-numeric:normal">Troškomjer</tspan></text>
  <path id="Selection" d="m378 119-37 0.59814c-7.83 2.37-19.196 7.521-24.786 13.501-2.48 2.66-3.8526 5.6989-5.4626 8.8989-7.6 15.17-5.7495 17.603-5.7495 34.003v366c0.01 8.8 0.92107 11.55 5.8411 19 3.05 4.62 4.2104 6.0537 8.1604 10.004 2.32 2.3 4.1407 4.1261 7.0007 5.7861 12.25 7.09 19.457-0.24907 27.997-8.7891l12-12c5.22-5.22 13.933-17.24 22.003-13.91 7.41 3.06 23.579 20.5 29.999 26.91 3.97 3.97 9.1724 9.6413 15.002 10.571 6.42 1.03 12.128-5.5119 16.168-9.6619l21.832-21.619c2.83-2.46 7.2485-6.2104 10.999-6.8604 6.17-1.06 11.016 4.7366 14.996 8.5266l10.004 9.0515 14.996 14.691c2.89 2.47 7.9895 6.7783 12 6.2683 4.06-0.53 10.14-5.1995 13-7.9895l20.093-20.941c3.17-3.25 10.181-9.6192 14.911-9.6192 3.97 0 9.158 4.1205 11.908 6.7505l7.1289 7.8308 15.961 15.161c3.83 3.42 9.3225 9.0796 15.002 8.3496 4.03-0.53 9.0295-4.9323 12-7.5623 9.63-8.5 10.219-9.3914 18.579-18.951 3.57-4.08 10.888-10.945 16.418-11.755 6.15-0.9 11.833 4.9601 16.003 8.8501l11.09 11.896 8.7402 8.0811c4.03 4.04 10.028 9.9634 16.168 10.223 3.77 0.15 10.078-3.5028 12.958-5.8228 2-1.6 8.9906-9.3385 10.651-11.469 4.89-6.28 6.3804-11.24 6.3904-19v-382c-0.01-7.6-0.29846-10.158-3.9185-16.998-2.23-4.2-4.7987-9.5435-8.1787-12.824-7.62-7.39-22.354-13.158-32.904-13.178h-268zm308.88 87.268c9.1972-0.14887 15.586 5.885 15.033 15.729l-4.7119 28.003-2.3987 21.997-3.4302 16.003c-1.3 6.53-1.8279 20.008-6.5979 24.768-3.96 3.97-13.093 4.3893-17.773 1.4893-2.53-1.56-6.7366-6.0081-8.9966-8.2581-2.6-2.59-6.8746-7.9079-11.005-6.5979-2.43 0.77-6.1356 4.7479-7.9956 6.5979l-15.002 15.002-55.719 55.42c-12.82 12.64-16.028 21.796-35.278 21.576-10.23-0.12-12.491-3.2486-20.001-9.5886l-25-24.408c-3.11-3.11-12.979-14.973-17.419-13.373-2.84 1.02-14.674 13.46-17.584 16.37l-32.037 31.989-8.6792 8.1055c-8.08 8.54-16.619 20.735-29.279 20.905-2.65 0.03-8.7046 0.18341-11.005-0.50659-8.35-2.5-12.894-11.369-12.994-19.489-0.03-2.51-0.16458-6.7027 0.55542-9.0027 2.45-7.84 14.871-17.911 20.721-24.091l54.303-54.181c6.68-6.65 19.027-21.047 27.417-23.877 3.34-1.12 9.3405-0.89839 13-0.84839 9.86 0.14 13.411 5.4395 20.001 12l12 11.035 12.091 12.244c2.95 2.8 12.098 13.779 15.918 13.049 2.38-0.46 5.2885-3.6584 6.9885-5.3284l12-12 44-43.732c3.48-3.45 15.27-13.453 16.04-17.273 0.8-4.01-4.4774-8.4286-7.0374-10.999-6.48-6.52-10.229-8.3493-9.9793-17.999 0.06-2.67 0.21509-4.6624 1.7151-6.9824 3.94-6.11 13.514-6.3383 20.264-8.5083l26.001-5.6274 14.996-3.9917 25-5.5115c0.63688-0.0656 1.2667-0.0999 1.8799-0.10986z" fill="#fff" stroke="#fff" stroke-width=".9"/>
 </g>
</svg>
